# xmcd
#
# Track frame offsets:
# 150
# 10605
# 20591
# 34286
# 45138
# 56409
# 68478
# 79749
# 91791
# 104814
# 114916
# 129930
# 142856
# 153567
#
# Disc length: 2198 seconds
#
#
# Revision: 0
# Processed by: cddbd v1.5.1PL2 Copyright (c) Steve Scherf et al.
# Submitted via: FreeRIP 2.945 
#
DISCID=a008940e
DTITLE=Various Artist - Country's Greatest Hits (disk 1)
DYEAR=2005
DGENRE=Country
TTITLE0=Hello Walls - Faron Young
TTITLE1=Please Help Me, I'm Falling - Hank Locklin
TTITLE2=Big Bad John - Jimmy Dean
TTITLE3=Wings Of A Dove - Ferlin Husky
TTITLE4=Oh Lonesome Me - Don Gibson
TTITLE5=The End Of The World - Skeeter Davis
TTITLE6=Waterloo - Stonewall Jackson
TTITLE7=There Goes My Everything - Jack Greene
TTITLE8=Hey Good Lookin' - Ace Cannon
TTITLE9=Green, Green Grass Of Home - Porter Wagoner
TTITLE10=Harper Valley P.T.A. - Jeannie C. Riley
TTITLE11=Wolverton Mountain - Claude Gray
TTITLE12=Act Naturally - Johnny Russell
TTITLE13=It Wasn't God Who Made Honky Tonk Angels - Kitty Wells
EXTD=
EXTT0=
EXTT1=
EXTT2=
EXTT3=
EXTT4=
EXTT5=
EXTT6=
EXTT7=
EXTT8=
EXTT9=
EXTT10=
EXTT11=
EXTT12=
EXTT13=
PLAYORDER=
